<?xml version="1.0" encoding="UTF-8" standalone="no"?>
<!-- Created with Inkscape (http://www.inkscape.org/) -->

<svg
   version="1.1"
   id="svg1"
   width="300"
   height="300"
   viewBox="0 0 300.24219 300"
   sodipodi:docname="dacap-logo-ink.svg"
   inkscape:version="1.4.2 (2aeb623e1d, 2025-05-12)"
   inkscape:export-filename="../d732a362/.svg"
   inkscape:export-xdpi="96"
   inkscape:export-ydpi="96"
   xmlns:inkscape="http://www.inkscape.org/namespaces/inkscape"
   xmlns:sodipodi="http://sodipodi.sourceforge.net/DTD/sodipodi-0.dtd"
   xmlns="http://www.w3.org/2000/svg"
   xmlns:svg="http://www.w3.org/2000/svg">
  <defs
     id="defs1" />
  <sodipodi:namedview
     id="namedview1"
     pagecolor="#ffffff"
     bordercolor="#000000"
     borderopacity="0.25"
     inkscape:showpageshadow="2"
     inkscape:pageopacity="0.0"
     inkscape:pagecheckerboard="0"
     inkscape:deskcolor="#d1d1d1"
     showgrid="false"
     inkscape:zoom="1.676"
     inkscape:cx="250"
     inkscape:cy="250"
     inkscape:window-width="1920"
     inkscape:window-height="1043"
     inkscape:window-x="0"
     inkscape:window-y="0"
     inkscape:window-maximized="1"
     inkscape:current-layer="g1">
    <inkscape:page
       x="0"
       y="0"
       width="300.24219"
       height="300"
       id="page2"
       margin="0"
       bleed="0" />
  </sodipodi:namedview>
  <g
     inkscape:groupmode="layer"
     inkscape:label="Image"
     id="g1"
     transform="translate(-29.842426,-20.276735)">
    <path
       style="fill:#046b52;fill-opacity:1;stroke-width:0.67633"
       d="M 165.74931,320.13885 C 112.07443,313.77645 68.81019,283.7994 45.317937,236.69403 26.069818,198.09875 24.706546,151.90813 41.622882,111.49723 54.193153,81.468498 79.424644,53.927838 108.93758,38.021914 139.84633,21.363719 178.07875,16.074375 212.57497,23.683979 c 17.41395,3.841386 37.19104,12.420892 51.76616,22.456699 2.70605,1.863273 4.81274,3.495126 4.68153,3.62634 -0.13122,0.131215 -2.90028,-0.661141 -6.15347,-1.760789 -22.93963,-7.754086 -51.21013,-8.130781 -75.86003,-1.010811 -28.85109,8.333457 -56.2596,29.191029 -72.45816,55.139862 -16.356565,26.20195 -23.132365,58.81116 -17.740289,85.37692 8.462029,41.6908 46.864259,70.82582 88.844019,67.40421 21.17313,-1.72575 39.25189,-9.88515 53.74855,-24.25808 16.40027,-16.2603 25.09023,-37.00312 25.09023,-59.89008 0,-26.03603 -10.23321,-48.39074 -29.99545,-65.52584 -5.87364,-5.09281 -9.66989,-7.53413 -17.55969,-11.292395 -6.90156,-3.287526 -16.54838,-6.454036 -21.93778,-7.200948 l -2.8744,-0.398365 v 25.851928 25.85192 l -2.87441,-0.5667 c -5.63241,-1.11044 -16.74685,-0.62804 -20.8869,0.90656 -10.06828,3.73201 -18.20663,12.38324 -21.15685,22.49014 -1.39301,4.7722 -1.3903,14.27242 0.005,19.0299 2.37811,8.10608 9.08786,16.52731 16.24636,20.3904 9.86056,5.32125 23.66781,5.19744 33.31326,-0.29872 7.35675,-4.19201 13.34157,-12.00097 15.91669,-20.76801 0.91389,-3.11135 1.079,-8.1109 1.079,-32.67117 v -28.99767 l 2.1578,1.22181 c 3.87618,2.19482 13.69848,12.54081 17.06132,17.97097 3.76248,6.07546 6.69595,13.25108 8.28215,20.25908 1.52705,6.74669 1.52756,20.94178 6.7e-4,27.15034 -3.36721,13.69425 -11.18381,26.30337 -21.3768,34.48334 -8.49779,6.81955 -16.43608,10.77372 -26.25304,13.07701 -7.44616,1.74705 -22.21668,1.58373 -29.30765,-0.32405 -22.15566,-5.96084 -39.26134,-23.1231 -45.36505,-45.51509 -2.18613,-8.02005 -2.18861,-26.0202 -0.005,-36.2212 6.65809,-31.10368 25.36336,-56.7245 52.72344,-72.215916 16.24226,-9.196445 32.62364,-13.439253 51.88862,-13.439253 21.93262,0 42.24524,6.153847 59.40736,17.99788 29.64813,20.460939 47.04141,53.134649 47.10225,88.482719 0.0693,40.23491 -16.49459,79.15323 -45.73838,107.46673 -22.17036,21.46508 -49.20359,35.21611 -79.85431,40.61959 -5.93852,1.04691 -11.59048,1.46001 -22.17306,1.62063 -7.81161,0.11857 -15.26815,0.0893 -16.57008,-0.065 z"
       id="path1" />
  </g>
</svg>
